<svg xmlns="http://www.w3.org/2000/svg" xmlns:xlink="http://www.w3.org/1999/xlink" width="751.443" height="550.982" viewBox="0 0 751.443 550.982">
  <defs>
    <style>
      .cls-1 {
        fill: url(#linear-gradient);
      }

      .cls-2 {
        fill: none;
      }

      .cls-3, .cls-4 {
        stroke: none;
      }

      .cls-4 {
        fill: #383844;
      }
    </style>
    <linearGradient id="linear-gradient" x1="0.563" y1="-0.092" x2="0.15" y2="1.871" gradientUnits="objectBoundingBox">
      <stop offset="0" stop-color="#fff"/>
      <stop offset="0.379" stop-color="#fdd2bb"/>
      <stop offset="0.557" stop-color="#f29085"/>
      <stop offset="1" stop-color="#e64b4b"/>
    </linearGradient>
  </defs>
  <g id="Group_965" data-name="Group 965" transform="translate(-958.312 -514.234)">
    <path id="Path_546" data-name="Path 546" class="cls-1" d="M78.6,55.124s5.612-3.145,99.765-18.219c1.422-.228,4.977-2.453,9.8-5.8,12.831-8.894,34.276-25.7,38.791-26.268A655.153,655.153,0,0,1,308.732,0c34.992,0,114.823-40.062,140.623-37.259C546.343-26.723,537.847,44.795,625.52,89.3c110.7,56.192,0,179.066,0,179.066s-51.758,25.364-219.99,25.364c-59.891,0-214.188,11.237-264.842,0C48.8,273.346,45.724,281.757,14.069,241.453s0-66.528,0-108.939S78.6,55.124,78.6,55.124Z" transform="matrix(0.956, -0.292, 0.292, 0.956, 977.18, 779.546)"/>
    <g id="Path_550" data-name="Path 550" class="cls-2" transform="matrix(0.956, -0.292, 0.292, 0.956, 969.247, 747.269)">
      <path class="cls-3" d="M78.6,55.124s5.612-3.145,99.765-18.219c1.422-.228,4.977-2.453,9.8-5.8,12.831-8.894,34.276-25.7,38.791-26.268A655.153,655.153,0,0,1,308.732,0c34.992,0,114.823-40.062,140.623-37.259C546.343-26.723,537.847,44.795,625.52,89.3c110.7,56.192,0,179.066,0,179.066s-51.758,25.364-219.99,25.364c-59.891,0-214.188,11.237-264.842,0C48.8,273.346,45.724,281.757,14.069,241.453s0-66.528,0-108.939S78.6,55.124,78.6,55.124Z"/>
      <path class="cls-4" d="M 446.5574951171875 -36.4000244140625 C 443.3646240234375 -36.4000244140625 439.4926147460938 -35.92431640625 434.72021484375 -34.94580078125 C 430.4219970703125 -34.06451416015625 425.4841003417969 -32.79132080078125 419.6242980957031 -31.05349731445312 C 408.6840209960938 -27.80902099609375 396.4710083007812 -23.52520751953125 383.5408020019531 -18.98980712890625 C 355.5225219726562 -9.162200927734375 326.5502014160156 1 308.7315063476562 1 C 279.9992065429688 1 252.5267028808594 2.6260986328125 227.0771179199219 5.833282470703125 C 226.2196044921875 5.9412841796875 223.8699951171875 6.971405029296875 217.5464172363281 11.26528930664062 C 212.8802185058594 14.43368530273438 207.1954040527344 18.58598327636719 201.6976928710938 22.60148620605469 C 196.9808349609375 26.04669189453125 192.5255126953125 29.30079650878906 188.7308349609375 31.93119812011719 C 183.0426025390625 35.87449645996094 179.9885864257812 37.65728759765625 178.5189819335938 37.89268493652344 C 88.16827392578125 52.35783386230469 79.49261474609375 55.81748962402344 79.052978515625 56.01338195800781 C 78.7437744140625 56.18229675292969 74.79473876953125 58.35234069824219 69.0592041015625 62.08979797363281 C 59.10760498046875 68.57449340820312 51.56439208984375 74.68489074707031 46.9888916015625 78.66888427734375 C 37.69189453125 86.76388549804688 30.28973388671875 94.97608947753906 24.98779296875 103.0771942138672 C 21.8541259765625 107.8655853271484 19.43060302734375 112.6655883789062 17.7847900390625 117.343994140625 C 15.98260498046875 122.4666900634766 15.06878662109375 127.5706939697266 15.06878662109375 132.5141906738281 C 15.06878662109375 139.25048828125 14.2723388671875 146.1891937255859 12.63372802734375 153.7270812988281 C 11.18829345703125 160.3765869140625 9.2783203125 166.6894836425781 7.43109130859375 172.7944946289062 C 4.03411865234375 184.0219879150391 0.82550048828125 194.6269836425781 1.00738525390625 205.6172943115234 C 1.1041259765625 211.4648895263672 2.1461181640625 216.9774932861328 4.19268798828125 222.4702911376953 C 6.4774169921875 228.6019897460938 9.9652099609375 234.6092834472656 14.855224609375 240.8353881835938 C 21.7208251953125 249.5767974853516 26.577880859375 255.1667938232422 31.096435546875 259.5269775390625 C 35.96630859375 264.2261962890625 40.6793212890625 267.654296875 45.9285888671875 270.3152770996094 C 50.98052978515625 272.8762817382812 56.856201171875 274.92578125 64.98028564453125 276.960693359375 C 72.67822265625 278.8887939453125 82.009033203125 280.7167053222656 93.82232666015625 283.0308837890625 C 106.2346801757812 285.4625854492188 121.6824340820312 288.4888000488281 140.9044799804688 292.7527770996094 C 155.981201171875 296.0972900390625 181.3807983398438 297.7230834960938 218.5545959472656 297.7230834960938 C 255.0863037109375 297.7230834960938 296.7986145019531 296.1555786132812 333.6004943847656 294.7725830078125 C 362.7806091308594 293.6760864257812 387.9813232421875 292.7290954589844 405.5299072265625 292.7290954589844 C 443.8106994628906 292.7290954589844 479.173095703125 291.4013061523438 510.6348266601562 288.7825927734375 C 535.806640625 286.6875 558.55224609375 283.7659912109375 578.23974609375 280.0993957519531 C 595.7575073242188 276.8367919921875 607.5601196289062 273.5759887695312 614.3765869140625 271.4149780273438 C 620.8263549804688 269.3702392578125 624.1490478515625 267.8983154296875 624.9090576171875 267.547607421875 C 625.6112060546875 266.7552490234375 629.0414428710938 262.836181640625 633.7275390625 256.6854858398438 C 642.4891967773438 245.1852874755859 648.8306274414062 234.8587951660156 652.607421875 228.2210998535156 C 660.2866821289062 214.7249908447266 665.9592895507812 201.5920867919922 669.4675903320312 189.1869812011719 C 671.5458374023438 181.8388977050781 672.877197265625 174.669189453125 673.4249267578125 167.8769836425781 C 674.0260009765625 160.4228820800781 673.6976318359375 153.239501953125 672.4486083984375 146.5264892578125 C 671.44091796875 141.1100921630859 669.809814453125 135.8739929199219 667.6007080078125 130.9635925292969 C 665.26123046875 125.7633972167969 662.20849609375 120.7843933105469 658.5274047851562 116.1649932861328 C 654.640625 111.2874908447266 649.9453125 106.67529296875 644.57177734375 102.4565887451172 C 638.9168090820312 98.01678466796875 632.3544921875 93.88998413085938 625.0671997070312 90.1907958984375 C 616.0701904296875 85.62379455566406 607.515380859375 80.46458435058594 599.6401977539062 74.85659790039062 C 592.5740356445312 69.8245849609375 585.968017578125 64.40519714355469 579.4447021484375 58.28858947753906 C 567.39990234375 46.99479675292969 557.8914794921875 35.41299438476562 548.6962280273438 24.21249389648438 C 536.7852172851562 9.704086303710938 525.5347900390625 -3.999603271484375 510.4959106445312 -14.73379516601562 C 502.4761962890625 -20.45791625976562 493.9791870117188 -24.92721557617188 484.5191040039062 -28.3970947265625 C 479.4233093261719 -30.26611328125 473.9554138183594 -31.86520385742188 468.2672119140625 -33.14981079101562 C 462.3263244628906 -34.49142456054688 455.927001953125 -35.53970336914062 449.2469177246094 -36.26541137695312 C 448.4247131347656 -36.35470581054688 447.5198059082031 -36.4000244140625 446.5574951171875 -36.4000244140625 M 446.5575256347656 -37.39999389648438 C 447.5496520996094 -37.39999389648438 448.4824829101562 -37.35427856445312 449.3549194335938 -37.259521484375 C 546.3425903320312 -26.7235107421875 537.8466796875 44.79478454589844 625.519775390625 89.29908752441406 C 736.218017578125 145.4913940429688 625.519775390625 268.3653869628906 625.519775390625 268.3653869628906 C 625.519775390625 268.3653869628906 573.76220703125 293.72900390625 405.5299072265625 293.7290954589844 C 365.605224609375 293.7290954589844 283.7153015136719 298.72314453125 218.5545959472656 298.72314453125 C 185.96826171875 298.72314453125 157.57470703125 297.47509765625 140.6879272460938 293.7290954589844 C 48.80078125 273.345703125 45.7235107421875 281.7567749023438 14.06878662109375 241.4530944824219 C -17.58599853515625 201.1493835449219 14.06878662109375 174.9254913330078 14.06878662109375 132.5141906738281 C 14.06878662109375 90.102783203125 78.5955810546875 55.12379455566406 78.5955810546875 55.12379455566406 C 78.5955810546875 55.12379455566406 84.20751953125 51.97918701171875 178.3609008789062 36.90528869628906 C 179.783203125 36.677490234375 183.3383178710938 34.45269775390625 188.1611328125 31.10939025878906 C 200.9916381835938 22.21559143066406 222.4373168945312 5.410003662109375 226.9521179199219 4.841094970703125 C 250.7192993164062 1.845977783203125 277.9450073242188 0 308.7315063476562 0 C 342.5405883789062 0 418.2081298828125 -37.39999389648438 446.5575256347656 -37.39999389648438 Z"/>
    </g>
  </g>
</svg>
